<svg id="svg" version="1.1" width="400" height="400" viewBox="0 0 400 400" xmlns="http://www.w3.org/2000/svg" xmlns:xlink="http://www.w3.org/1999/xlink"><g id="svgg"><path id="path0" d="M55.105 91.211 C 47.010 92.583,41.019 97.711,37.851 105.981 L 37.001 108.200 36.937 199.600 C 36.885 274.093,36.971 291.489,37.404 293.644 C 39.027 301.743,45.880 308.761,53.752 310.388 C 57.294 311.120,220.086 310.758,220.980 310.016 C 222.349 308.881,222.438 307.767,221.426 304.495 C 220.031 299.991,219.875 298.419,220.430 294.495 C 221.045 290.147,220.616 288.871,218.278 288.105 C 217.099 287.719,199.956 287.606,140.316 287.592 C 55.878 287.572,61.872 287.762,60.737 285.072 C 60.294 284.022,60.200 269.374,60.200 200.982 C 60.200 109.101,59.968 117.087,62.688 115.306 C 64.364 114.208,287.636 114.208,289.312 115.306 C 291.953 117.036,291.800 114.988,291.800 148.583 C 291.800 181.790,291.692 180.244,294.090 181.237 C 294.994 181.612,295.835 181.539,298.586 180.849 C 302.470 179.875,304.076 179.815,308.623 180.472 C 312.386 181.016,313.928 180.630,314.847 178.913 C 315.819 177.096,315.650 109.816,314.665 106.600 C 312.499 99.535,307.643 94.411,300.755 91.923 L 298.200 91.000 177.600 90.945 C 111.270 90.915,56.147 91.035,55.105 91.211 M149.537 149.414 C 145.277 150.760,143.578 153.265,136.522 168.600 C 130.807 181.020,126.655 189.245,125.633 190.170 C 123.812 191.818,122.393 191.964,108.000 191.987 C 92.349 192.012,91.948 192.049,89.108 193.754 C 81.898 198.081,83.183 208.182,91.249 210.577 C 94.388 211.510,130.433 211.503,133.577 210.570 C 137.286 209.468,138.742 207.563,144.213 196.653 C 152.314 180.496,151.530 180.019,162.016 207.486 C 163.966 212.594,166.999 220.154,168.755 224.286 C 170.511 228.419,173.146 235.040,174.610 239.000 C 179.023 250.932,182.039 254.181,188.044 253.469 C 192.589 252.931,194.502 250.983,198.684 242.632 C 200.346 239.314,203.728 232.820,206.201 228.200 C 208.674 223.580,211.340 218.519,212.126 216.954 C 214.871 211.490,214.360 211.632,231.800 211.464 C 247.247 211.316,245.717 211.685,254.032 206.099 C 263.277 199.888,264.359 196.761,258.465 193.296 L 256.600 192.200 232.600 192.200 L 208.600 192.200 206.310 193.324 C 202.665 195.114,201.054 197.373,194.635 209.690 C 188.054 222.318,188.608 222.737,178.630 197.600 C 175.181 188.910,171.350 179.370,170.118 176.400 C 168.886 173.430,166.495 167.580,164.804 163.400 C 163.114 159.220,161.349 155.058,160.883 154.150 C 158.813 150.124,153.848 148.051,149.537 149.414 M297.600 201.556 C 292.539 202.643,290.865 205.276,289.179 214.800 C 287.984 221.557,287.534 222.344,283.326 225.059 C 274.252 230.913,273.909 230.962,265.473 227.627 C 255.434 223.658,254.322 224.190,246.308 236.800 C 237.680 250.375,237.765 251.089,249.155 260.772 C 253.301 264.297,253.694 265.528,253.532 274.505 C 253.368 283.578,253.300 283.729,247.085 288.876 C 238.541 295.951,238.231 297.736,243.868 307.400 C 253.540 323.983,254.866 324.805,265.000 320.505 C 273.553 316.875,273.795 316.883,280.400 321.027 C 288.197 325.918,288.434 326.263,289.404 334.159 C 290.780 345.350,292.139 346.289,307.200 346.457 C 322.825 346.631,324.363 345.617,325.814 334.194 C 326.869 325.896,327.168 325.497,336.107 320.500 C 341.707 317.370,342.764 317.287,348.120 319.564 C 360.422 324.793,361.562 324.362,369.438 311.495 C 378.419 296.821,378.441 297.064,367.271 287.267 C 362.968 283.493,362.878 283.229,362.746 273.971 C 362.605 264.064,362.273 264.759,370.525 257.680 C 377.882 251.369,377.928 249.817,371.096 238.442 C 365.818 229.654,364.011 227.355,361.442 226.158 C 358.254 224.674,358.424 224.642,346.419 229.001 C 342.523 230.416,341.517 230.249,335.915 227.261 C 327.488 222.766,327.121 222.293,325.945 214.432 C 324.781 206.640,323.399 203.984,319.600 202.240 C 317.683 201.360,300.938 200.840,297.600 201.556 M315.852 248.956 C 331.507 254.004,339.144 271.923,331.800 286.376 C 321.641 306.370,293.666 305.752,283.589 285.312 C 273.742 265.342,294.417 242.045,315.852 248.956 " stroke="none" fill="#0a0909" fill-rule="evenodd" data-darkreader-inline-fill="" data-darkreader-inline-stroke="" ></path></g></svg>