<svg id="svg" version="1.1" width="400" height="400" viewBox="0 0 400 400" xmlns="http://www.w3.org/2000/svg" xmlns:xlink="http://www.w3.org/1999/xlink"><g id="svgg"><path id="path0" d="M169.000 74.413 C 156.649 74.768,152.780 76.064,146.951 81.798 C 143.604 85.090,142.254 87.579,138.219 97.893 C 132.963 111.331,133.886 110.939,108.400 110.574 C 88.821 110.295,83.095 110.604,78.000 112.217 C 65.439 116.195,57.070 124.596,53.910 136.400 L 53.000 139.800 53.000 220.000 L 53.000 300.200 53.912 303.535 C 57.318 315.993,66.547 324.777,79.889 328.262 L 83.800 329.283 201.434 329.259 C 330.567 329.232,321.895 329.392,327.799 326.922 C 338.593 322.408,345.717 314.493,348.665 303.741 L 349.746 299.800 349.859 221.800 C 349.930 172.888,349.827 142.700,349.583 140.850 C 347.810 127.406,337.856 116.012,324.119 111.704 L 320.600 110.600 298.143 110.553 C 268.513 110.490,270.130 110.957,266.162 101.314 C 258.349 82.330,253.584 76.929,242.600 74.606 C 239.595 73.970,188.990 73.838,169.000 74.413 M210.600 144.438 C 243.949 148.471,272.821 176.559,277.647 209.663 C 283.562 250.240,258.568 287.453,218.800 297.278 C 209.507 299.574,191.183 299.337,181.480 296.796 C 139.107 285.697,114.535 242.489,126.624 200.334 C 137.152 163.622,172.835 139.871,210.600 144.438 M315.311 144.424 C 323.534 146.707,324.174 160.308,316.257 164.506 C 313.744 165.839,299.455 165.861,297.000 164.537 C 289.394 160.432,289.819 147.449,297.650 144.682 C 299.749 143.940,312.878 143.748,315.311 144.424 M192.000 167.419 C 140.741 175.492,129.109 247.505,175.400 270.191 C 218.380 291.253,264.459 256.578,254.856 210.400 C 248.940 181.946,221.012 162.849,192.000 167.419 M214.734 189.949 C 224.546 193.003,234.747 205.610,234.791 214.740 C 234.822 221.071,226.484 225.269,220.659 221.855 C 218.484 220.581,218.034 220.036,215.819 216.000 C 213.451 211.685,211.944 210.151,208.029 208.064 C 206.298 207.142,204.246 205.683,203.468 204.822 C 197.057 197.726,205.197 186.980,214.734 189.949 " stroke="none" fill="#090b0a" fill-rule="evenodd" data-darkreader-inline-fill="" data-darkreader-inline-stroke="" ></path></g></svg>