<svg id="svg" version="1.1" width="400" height="400" viewBox="0 0 400 400" xmlns="http://www.w3.org/2000/svg" xmlns:xlink="http://www.w3.org/1999/xlink"><g id="svgg"><path id="path0" d="M198.984 40.947 C 193.763 43.378,193.096 45.440,192.817 60.000 C 192.526 75.210,193.013 74.388,183.839 75.163 C 121.875 80.396,71.559 127.641,63.453 188.200 C 59.846 215.154,65.069 249.924,73.715 256.506 C 80.823 261.918,90.601 259.817,94.778 251.980 C 96.930 247.943,96.893 246.028,94.496 237.396 C 91.276 225.798,90.248 218.667,90.228 207.800 C 90.132 153.838,131.150 107.955,183.071 103.945 C 193.440 103.144,193.358 103.015,193.097 119.600 C 192.863 134.385,193.448 136.301,199.024 139.029 C 203.791 141.361,205.414 140.755,220.000 131.203 C 229.319 125.100,234.657 121.681,253.400 109.813 C 256.920 107.584,261.555 104.696,263.699 103.395 C 277.886 94.790,279.463 86.511,268.242 79.541 C 267.119 78.843,263.230 76.349,259.600 73.998 C 255.970 71.647,247.330 66.083,240.400 61.634 C 233.470 57.185,223.930 51.018,219.200 47.929 C 206.241 39.466,203.900 38.657,198.984 40.947 M309.437 147.765 C 300.691 151.454,298.809 157.354,302.392 169.851 C 311.647 202.126,307.441 232.332,290.063 258.400 C 273.295 283.552,242.951 301.646,214.549 303.428 C 205.463 303.999,205.866 304.654,205.576 288.819 C 205.323 274.984,205.180 274.154,202.528 271.204 C 198.293 266.495,194.113 266.688,186.000 271.967 C 183.690 273.470,179.190 276.367,176.000 278.404 C 165.513 285.102,160.277 288.480,154.600 292.211 C 148.078 296.496,138.226 302.828,132.800 306.221 C 124.879 311.174,122.543 315.096,124.198 320.669 C 125.349 324.544,128.332 327.018,142.219 335.610 C 145.509 337.645,153.330 342.676,159.600 346.789 C 192.627 368.456,194.546 369.454,199.342 367.450 C 204.733 365.197,205.358 363.256,205.600 348.000 C 205.858 331.720,204.886 333.115,216.800 331.933 C 249.278 328.711,282.664 311.744,302.851 288.200 C 334.239 251.592,343.375 206.668,328.616 161.499 C 324.617 149.262,317.676 144.291,309.437 147.765 " stroke="none" fill="#0a0b0b" fill-rule="evenodd" data-darkreader-inline-fill="" data-darkreader-inline-stroke="" ></path></g></svg>