<svg id="svg" version="1.1" width="400" height="400" viewBox="0 0 400 400" xmlns="http://www.w3.org/2000/svg" xmlns:xlink="http://www.w3.org/1999/xlink"><g id="svgg"><path id="path0" d="M218.042 65.798 C 199.929 69.875,186.838 84.122,184.851 101.918 C 184.264 107.183,184.084 107.422,171.337 119.845 C 133.864 156.368,102.364 188.183,102.382 189.491 C 102.406 191.200,103.251 191.699,108.239 192.949 C 121.432 196.255,131.486 203.651,139.911 216.248 C 142.452 220.048,142.874 220.400,144.880 220.400 C 146.232 220.400,149.022 217.657,194.400 171.712 C 220.755 145.028,217.934 147.200,226.800 146.767 C 262.296 145.035,279.090 103.473,254.690 77.744 C 245.641 68.201,230.004 63.104,218.042 65.798 M229.800 86.605 C 244.998 89.812,250.595 108.941,239.562 119.974 C 224.278 135.258,198.878 118.497,206.814 98.364 C 210.295 89.533,220.044 84.546,229.800 86.605 M269.272 143.073 C 263.669 145.834,264.259 149.839,271.689 159.481 C 277.633 167.193,280.397 168.718,284.041 166.297 C 288.265 163.490,288.048 159.440,283.341 153.199 C 275.560 142.883,273.161 141.156,269.272 143.073 M292.067 177.658 C 287.268 180.034,287.185 182.675,291.563 193.800 C 296.012 205.105,297.809 207.147,302.313 206.013 C 307.680 204.662,308.744 201.365,306.185 194.013 C 301.146 179.536,297.292 175.072,292.067 177.658 M89.434 205.216 C 45.723 212.091,41.993 272.769,84.600 283.840 C 116.343 292.088,144.593 259.494,131.738 229.455 C 124.523 212.597,106.858 202.475,89.434 205.216 M305.710 219.198 C 297.159 221.164,298.770 237.274,307.420 236.299 C 312.019 235.780,314.249 230.971,312.658 225.000 C 311.385 220.225,309.196 218.397,305.710 219.198 M98.983 225.812 C 114.012 229.727,119.263 248.007,108.448 258.765 C 90.350 276.770,62.901 249.962,80.631 231.597 C 85.925 226.113,92.356 224.086,98.983 225.812 M303.612 251.433 C 300.651 252.718,299.603 254.519,298.629 260.000 C 298.257 262.090,297.224 266.938,296.333 270.773 C 294.558 278.411,294.500 280.294,295.980 282.373 C 299.460 287.259,305.882 285.381,308.202 278.800 C 309.919 273.927,312.400 261.845,312.400 258.356 C 312.400 253.019,307.981 249.538,303.612 251.433 M144.512 266.100 C 144.057 266.595,142.922 268.530,141.989 270.400 C 135.145 284.115,122.372 293.892,106.400 297.641 C 97.997 299.613,97.764 299.176,119.418 321.998 C 135.797 339.261,135.876 338.399,117.913 338.402 C 98.748 338.406,98.024 338.879,98.010 351.400 C 98.002 358.875,98.276 359.914,100.663 361.478 C 101.948 362.320,248.492 362.837,251.561 362.011 C 255.169 361.039,256.216 357.978,255.898 349.340 C 255.666 343.029,254.958 341.264,251.995 339.605 L 250.200 338.600 236.200 338.400 C 223.494 338.218,222.071 338.131,220.800 337.448 C 220.030 337.035,203.380 320.607,183.800 300.943 C 144.530 261.502,146.848 263.558,144.512 266.100 M287.800 298.351 C 286.017 299.462,284.775 300.967,281.981 305.400 C 280.595 307.600,278.346 311.035,276.983 313.034 C 271.813 320.617,273.037 326.571,279.765 326.571 C 283.663 326.571,289.381 319.931,294.791 309.123 C 298.438 301.836,293.764 294.634,287.800 298.351 " stroke="none" fill="#0a0a0a" fill-rule="evenodd" data-darkreader-inline-fill="" data-darkreader-inline-stroke="" ></path></g></svg>