<svg id="svg" version="1.1" width="400" height="400" viewBox="0 0 400 400" xmlns="http://www.w3.org/2000/svg" xmlns:xlink="http://www.w3.org/1999/xlink"><g id="svgg"><path id="path0" d="M124.000 63.443 C 116.853 65.362,111.321 70.681,109.086 77.783 L 108.200 80.600 108.200 197.400 L 108.200 314.200 109.308 317.210 C 111.440 323.005,116.036 327.707,121.864 330.058 L 124.200 331.000 202.400 331.000 L 280.600 331.000 282.872 330.140 C 289.461 327.646,294.679 321.428,293.351 317.652 C 292.972 316.574,292.071 315.902,287.923 313.600 C 280.127 309.274,276.856 303.263,276.444 292.507 C 276.199 286.094,276.182 286.001,275.090 284.907 L 273.983 283.800 253.492 283.559 C 231.036 283.295,230.855 283.276,225.834 280.740 C 208.366 271.917,207.339 248.371,223.951 237.527 C 229.778 233.723,229.174 233.800,253.090 233.800 L 273.980 233.800 275.018 232.763 C 276.398 231.384,276.778 229.511,276.796 224.000 C 276.830 214.004,280.808 206.746,288.400 202.830 C 294.239 199.818,293.894 201.235,294.207 178.975 C 294.584 152.090,294.224 148.353,290.940 145.039 C 288.613 142.690,289.306 142.748,261.431 142.537 C 232.767 142.319,233.138 142.354,228.200 139.396 C 225.170 137.580,223.617 136.027,221.807 133.000 C 218.917 128.168,219.050 129.699,218.813 98.400 L 218.600 70.200 217.628 68.241 C 216.624 66.216,214.283 64.219,211.874 63.330 C 209.768 62.554,126.915 62.661,124.000 63.443 M233.879 76.978 C 232.824 78.033,232.697 80.537,232.672 100.798 C 232.635 130.208,230.465 128.189,261.827 127.929 C 284.243 127.743,284.740 127.671,283.665 124.763 C 283.341 123.888,239.498 79.383,237.400 77.799 C 235.698 76.514,234.599 76.258,233.879 76.978 M296.803 216.237 C 292.231 218.220,291.838 219.531,291.600 233.600 C 291.385 246.285,291.333 246.592,289.222 247.660 C 288.431 248.059,282.220 248.226,261.800 248.395 C 231.765 248.643,233.473 248.444,230.195 252.090 C 225.285 257.551,227.034 265.493,233.802 268.473 C 234.738 268.885,240.806 269.044,261.600 269.200 C 285.846 269.382,288.312 269.461,289.467 270.093 C 291.516 271.214,291.712 272.471,291.696 284.374 C 291.678 297.312,292.015 298.512,296.200 300.444 C 300.094 302.241,303.297 300.951,309.532 295.073 C 323.650 281.763,341.206 264.634,342.203 263.196 C 345.588 258.312,344.087 254.822,334.828 246.040 C 331.209 242.608,323.377 235.058,317.424 229.261 C 303.050 215.267,301.418 214.236,296.803 216.237 " stroke="none" fill="#070b08" fill-rule="evenodd" data-darkreader-inline-fill="" data-darkreader-inline-stroke="" ></path></g></svg>