<svg id="svg" version="1.1" width="400" height="400" viewBox="0 0 400 400" xmlns="http://www.w3.org/2000/svg" xmlns:xlink="http://www.w3.org/1999/xlink"><g id="svgg"><path id="path0" d="M96.800 43.627 C 83.176 44.199,73.381 51.797,70.536 64.000 C 69.788 67.210,69.663 325.709,70.408 329.034 C 72.498 338.363,79.641 345.436,89.676 348.113 L 93.000 349.000 197.800 349.000 L 302.600 349.000 305.786 348.078 C 316.067 345.101,323.418 336.530,324.797 325.913 C 325.345 321.697,325.322 107.394,324.774 104.000 C 324.022 99.344,323.396 98.640,287.475 62.025 C 271.372 45.612,270.332 44.695,267.004 43.989 C 264.860 43.534,107.005 43.198,96.800 43.627 M225.400 108.387 C 231.079 108.737,233.303 109.631,235.936 112.622 C 241.769 119.248,239.828 130.006,232.089 133.955 C 228.916 135.573,226.914 135.629,176.000 135.512 L 127.000 135.400 125.032 134.492 C 119.517 131.949,117.394 128.468,117.412 122.000 C 117.435 113.782,121.719 109.058,129.718 108.431 C 134.351 108.067,219.586 108.028,225.400 108.387 M266.298 168.566 C 278.970 170.196,281.407 188.539,269.712 194.261 C 266.450 195.856,263.169 195.923,191.000 195.848 L 127.400 195.783 125.130 194.727 C 114.701 189.877,114.398 174.605,124.631 169.569 C 126.579 168.610,126.754 168.598,141.200 168.400 C 160.060 168.142,264.073 168.279,266.298 168.566 M260.400 228.912 C 266.629 229.008,267.613 229.117,269.332 229.901 C 279.732 234.648,280.052 249.837,269.855 254.774 C 266.510 256.393,264.357 256.437,194.400 256.316 L 127.000 256.200 125.130 255.336 C 114.663 250.499,114.428 234.628,124.751 229.855 C 127.262 228.694,209.029 228.126,260.400 228.912 M207.592 286.197 C 219.726 290.478,219.080 309.013,206.687 312.173 C 203.671 312.942,129.270 313.210,126.576 312.461 C 112.619 308.583,114.860 286.956,129.363 285.573 C 135.727 284.966,205.685 285.524,207.592 286.197 " stroke="none" fill="#070707" fill-rule="evenodd" data-darkreader-inline-fill="" data-darkreader-inline-stroke="" ></path></g></svg>