<svg id="svg" version="1.1" width="400" height="400" viewBox="0 0 400 400" xmlns="http://www.w3.org/2000/svg" xmlns:xlink="http://www.w3.org/1999/xlink"><g id="svgg"><path id="path0" d="M75.669 69.162 C 71.753 70.515,69.144 73.867,68.438 78.455 C 68.187 80.084,68.085 123.878,68.152 200.200 L 68.258 319.400 69.186 321.776 C 71.470 327.623,75.072 329.567,84.533 330.062 C 99.318 330.834,338.372 330.289,340.453 329.478 C 349.488 325.960,350.300 313.911,341.800 309.499 C 339.042 308.068,332.348 307.996,210.782 308.100 C 81.172 308.210,92.110 308.411,90.736 305.900 C 90.349 305.194,90.232 280.481,90.191 191.200 C 90.133 62.236,90.504 75.266,86.782 71.544 C 83.781 68.543,79.882 67.707,75.669 69.162 M219.000 113.736 C 215.156 115.009,212.993 116.928,211.488 120.400 C 210.554 122.556,190.811 181.979,182.792 206.767 C 176.542 226.091,177.110 226.090,165.600 206.814 C 156.306 191.250,154.361 189.214,148.771 189.204 C 141.996 189.192,140.611 190.732,125.579 215.000 C 123.534 218.300,120.785 222.609,119.470 224.576 C 107.504 242.461,106.645 249.198,115.785 253.454 C 122.152 256.419,126.056 254.087,133.286 243.000 C 149.439 218.231,147.591 219.176,155.180 231.800 C 171.567 259.062,173.638 261.589,179.600 261.594 C 186.321 261.599,189.031 258.545,192.908 246.600 C 194.122 242.860,198.628 229.090,202.922 216.000 C 207.215 202.910,212.565 186.530,214.811 179.600 C 221.493 158.976,221.478 158.980,226.763 176.245 C 228.304 181.280,230.445 188.190,231.520 191.600 C 233.842 198.967,239.047 215.693,242.660 227.400 C 250.204 251.845,250.684 252.751,256.994 254.453 C 263.595 256.234,266.567 253.570,277.364 236.200 C 286.390 221.676,299.219 201.970,300.766 200.251 C 303.489 197.224,305.606 197.450,309.867 201.223 C 327.936 217.219,355.681 204.830,354.261 181.400 C 352.665 155.059,319.989 147.496,305.936 170.216 C 303.249 174.559,302.387 175.127,297.748 175.605 C 290.543 176.349,288.442 178.139,281.028 189.857 C 264.982 215.216,264.209 216.199,261.932 214.138 C 261.147 213.428,258.664 206.007,253.654 189.400 C 251.929 183.680,249.425 175.580,248.091 171.400 C 246.756 167.220,245.002 161.550,244.193 158.800 C 239.583 143.138,232.292 119.799,231.720 118.875 C 229.018 114.511,223.450 112.262,219.000 113.736 " stroke="none" fill="#090909" fill-rule="evenodd" data-darkreader-inline-fill="" data-darkreader-inline-stroke="" ></path></g></svg>