<svg id="svg" version="1.1" width="400" height="400" viewBox="0 0 400 400" xmlns="http://www.w3.org/2000/svg" xmlns:xlink="http://www.w3.org/1999/xlink"><g id="svgg"><path id="path0" d="M207.800 68.774 C 204.765 69.513,202.213 71.758,200.720 75.000 L 199.800 77.000 199.681 147.200 C 199.596 196.954,199.688 217.837,199.997 218.900 C 200.763 221.541,202.135 221.075,205.870 216.906 C 218.042 203.319,227.757 195.956,241.193 190.135 C 246.721 187.740,248.208 186.598,248.835 184.269 C 249.548 181.621,249.349 78.221,248.626 75.820 C 247.567 72.301,245.076 69.758,241.800 68.848 C 239.996 68.348,209.822 68.282,207.800 68.774 M137.197 139.574 C 134.448 140.410,131.982 142.496,130.546 145.200 C 129.191 147.753,128.818 315.522,130.158 320.100 C 130.943 322.783,132.557 324.718,135.258 326.213 L 137.400 327.400 154.200 327.400 C 170.993 327.400,171.001 327.400,172.895 326.466 C 175.120 325.371,177.610 322.694,178.419 320.531 C 179.160 318.547,179.509 150.828,178.779 147.304 C 178.148 144.255,176.246 141.661,173.654 140.315 L 171.509 139.200 154.854 139.234 C 145.694 139.253,137.749 139.406,137.197 139.574 M259.200 201.004 C 236.739 205.170,214.680 224.223,206.408 246.600 C 193.724 280.913,206.965 317.995,238.535 336.572 C 280.205 361.092,333.427 338.116,345.023 290.600 C 346.896 282.926,346.189 280.147,342.069 278.988 C 341.558 278.844,326.438 278.734,308.469 278.743 C 273.783 278.761,273.688 278.756,271.439 276.781 C 268.430 274.139,268.623 276.564,268.400 238.600 C 268.214 207.045,268.149 204.507,267.492 203.304 C 266.093 200.744,263.891 200.134,259.200 201.004 M284.187 200.825 C 282.731 201.248,281.284 202.527,280.790 203.826 C 280.591 204.348,280.339 217.684,280.228 233.461 C 280.000 265.963,279.893 264.699,283.016 266.181 C 285.259 267.245,340.502 267.361,342.891 266.306 C 346.067 264.905,346.715 261.615,345.180 254.696 C 340.009 231.384,321.686 210.964,299.184 203.434 C 292.571 201.221,286.473 200.160,284.187 200.825 M68.731 209.586 C 64.500 210.149,60.889 213.152,59.814 217.000 C 59.143 219.401,58.609 291.141,59.124 309.600 C 59.463 321.728,59.491 321.864,62.213 324.587 C 65.151 327.525,64.185 327.400,84.010 327.400 L 101.821 327.400 103.810 326.383 C 106.211 325.157,108.138 322.513,108.765 319.587 C 109.535 315.997,109.359 219.080,108.577 216.449 C 107.854 214.013,105.788 211.534,103.427 210.271 C 101.699 209.346,74.557 208.810,68.731 209.586 " stroke="none" fill="#070707" fill-rule="evenodd" data-darkreader-inline-fill="" data-darkreader-inline-stroke="" ></path></g></svg>