<svg id="svg" version="1.1" width="400" height="400" viewBox="0 0 400 400" xmlns="http://www.w3.org/2000/svg" xmlns:xlink="http://www.w3.org/1999/xlink"><g id="svgg"><path id="path0" d="M85.646 69.251 C 79.068 70.344,76.246 74.342,76.226 82.600 C 76.202 92.228,79.404 96.170,88.111 97.233 C 94.176 97.974,159.404 97.518,161.739 96.719 C 167.835 94.631,170.339 90.004,169.873 81.683 C 169.407 73.355,166.359 70.010,158.483 69.181 C 154.029 68.712,88.511 68.775,85.646 69.251 M102.936 107.572 C 97.834 108.831,97.060 110.748,96.787 122.800 C 96.502 135.349,96.489 135.376,88.651 139.157 C 77.931 144.328,75.423 150.146,74.837 171.200 C 74.438 185.569,74.206 186.305,69.311 188.758 C 63.897 191.472,63.494 192.639,63.293 206.200 C 62.932 230.501,63.596 233.598,69.838 236.731 C 74.249 238.945,74.605 240.279,75.138 256.600 C 75.782 276.332,78.089 281.097,89.759 286.796 C 99.380 291.494,98.980 297.634,88.951 299.197 C 79.450 300.677,75.829 305.563,76.518 315.976 C 76.943 322.413,79.328 325.344,84.973 326.369 C 87.731 326.870,143.100 326.927,154.600 326.441 C 166.478 325.939,169.200 323.584,169.200 313.811 C 169.200 304.606,166.403 300.878,158.243 299.206 C 148.402 297.189,147.714 291.210,156.881 287.366 C 163.435 284.618,166.732 281.413,168.941 275.642 L 169.800 273.400 169.911 224.000 C 170.029 171.365,169.736 155.331,168.588 151.600 C 166.787 145.748,163.353 141.819,157.214 138.591 C 150.178 134.890,149.631 133.765,149.337 122.400 C 148.932 106.722,150.133 107.426,123.600 107.330 C 112.930 107.292,103.631 107.401,102.936 107.572 M204.934 142.796 C 194.767 143.919,187.769 150.132,185.317 160.211 C 184.471 163.691,183.996 267.245,184.805 272.000 C 186.785 283.652,193.929 288.216,211.691 289.178 C 221.668 289.719,223.782 290.560,223.782 293.991 C 223.782 296.904,221.887 298.116,215.932 299.010 C 207.457 300.283,204.236 303.172,203.186 310.443 C 201.880 319.490,205.017 325.038,212.186 326.364 C 215.423 326.962,325.914 326.970,329.599 326.372 C 336.447 325.261,339.166 321.081,338.688 312.402 C 338.211 303.746,335.278 300.631,326.086 299.015 C 316.776 297.378,316.032 292.014,324.721 289.176 C 332.881 286.512,337.783 281.579,339.911 273.890 C 340.820 270.607,340.977 170.068,340.083 163.800 C 338.369 151.777,332.226 145.011,321.360 143.180 C 318.477 142.694,209.123 142.333,204.934 142.796 M351.912 167.900 C 349.898 170.036,349.929 169.383,349.608 215.600 C 349.261 265.555,349.274 265.932,351.506 268.492 C 355.087 272.599,363.930 264.594,365.858 255.501 C 366.790 251.103,366.802 184.802,365.872 180.504 C 363.809 170.977,355.817 163.761,351.912 167.900 M36.743 169.581 C 31.256 170.587,28.499 173.737,27.584 180.043 C 26.916 184.650,26.932 243.465,27.602 246.746 C 28.918 253.185,32.347 255.400,41.002 255.400 C 49.589 255.400,53.118 253.152,54.349 246.899 C 55.016 243.509,55.086 183.733,54.428 179.800 C 53.020 171.387,46.725 167.750,36.743 169.581 M301.145 178.019 C 311.411 179.685,313.311 190.190,303.937 193.456 C 301.099 194.444,223.668 194.627,220.317 193.653 C 211.173 190.996,212.061 180.270,221.600 178.155 C 224.474 177.518,297.288 177.393,301.145 178.019 M302.901 209.345 C 309.133 210.836,311.776 216.072,308.669 220.768 C 307.035 223.237,304.303 224.343,298.564 224.861 C 291.937 225.459,225.948 225.394,222.330 224.787 C 212.962 223.213,210.415 214.001,218.280 210.139 L 220.600 209.000 234.200 208.751 C 257.255 208.329,300.208 208.700,302.901 209.345 M299.393 239.609 C 312.394 240.873,314.240 253.901,301.712 255.972 C 296.672 256.805,222.227 256.365,220.027 255.490 C 211.868 252.242,211.953 242.677,220.162 240.329 C 223.820 239.283,289.865 238.683,299.393 239.609 " stroke="none" fill="#0d0e0d" fill-rule="evenodd" data-darkreader-inline-fill="" data-darkreader-inline-stroke="" ></path></g></svg>