<svg id="svg" version="1.1" width="400" height="400" viewBox="0 0 400 400" xmlns="http://www.w3.org/2000/svg" xmlns:xlink="http://www.w3.org/1999/xlink"><g id="svgg"><path id="path0" d="M289.487 73.637 C 283.474 75.053,280.284 81.399,282.883 86.774 C 283.483 88.013,286.048 90.833,290.859 95.544 C 300.791 105.269,300.748 105.094,294.459 110.277 C 270.702 129.857,250.717 137.881,221.333 139.638 C 203.959 140.677,202.030 140.257,198.753 134.721 C 183.186 108.421,145.911 111.686,136.404 140.182 C 134.783 145.040,134.096 146.046,131.344 147.583 C 117.048 155.568,107.094 166.283,97.887 183.600 C 93.679 191.515,85.912 212.840,82.735 225.200 C 80.631 233.386,79.422 235.715,77.035 236.180 C 65.490 238.428,58.906 242.101,53.467 249.328 C 36.535 271.826,51.363 302.538,79.600 303.454 C 87.333 303.705,86.587 303.385,92.328 308.922 C 121.928 337.473,165.322 347.136,210.283 335.189 C 226.895 330.776,243.364 321.123,258.000 307.224 C 261.936 303.486,261.971 303.474,269.600 303.384 C 278.156 303.282,281.702 302.238,288.200 297.908 C 315.739 279.556,302.828 236.280,269.800 236.233 C 244.124 236.197,227.965 262.492,239.587 285.400 C 242.846 291.824,242.867 291.735,236.971 296.473 C 202.295 324.335,148.900 325.511,114.808 299.163 C 107.009 293.136,106.408 292.026,108.862 288.178 C 117.420 274.759,115.847 258.198,104.879 246.269 C 101.070 242.126,101.020 241.498,103.788 232.600 C 104.540 230.180,105.720 226.220,106.409 223.800 C 113.709 198.152,124.699 178.292,135.595 171.057 C 138.910 168.856,139.636 169.007,143.210 172.636 C 160.014 189.700,185.534 187.168,198.339 167.166 C 201.652 161.991,200.758 162.265,214.600 162.183 C 252.270 161.959,279.884 151.568,311.600 125.680 C 316.598 121.601,316.545 121.579,326.544 131.669 C 335.714 140.922,337.123 141.863,341.248 141.489 C 345.399 141.113,348.925 138.217,350.076 134.238 C 350.621 132.357,350.796 85.123,350.270 81.941 C 349.646 78.164,346.374 74.795,342.303 73.739 C 339.872 73.108,292.124 73.016,289.487 73.637 " stroke="none" fill="#090909" fill-rule="evenodd" data-darkreader-inline-fill="" data-darkreader-inline-stroke="" ></path></g></svg>