<svg id="svg" version="1.1" width="400" height="400" viewBox="62 61 278 278" xmlns="http://www.w3.org/2000/svg">
    <g id="svgg">
        <path id="path0" d="M192.800 61.837 C 192.030 61.928,189.600 62.191,187.400 62.422 C 122.444 69.241,71.266 120.584,64.023 186.200 C 60.390 219.105,69.818 255.167,88.717 280.656 C 133.693 341.314,213.389 357.083,275.000 317.513 C 313.651 292.690,336.465 253.743,339.219 207.881 C 343.277 140.301,295.835 78.059,230.000 64.591 C 219.961 62.537,199.626 61.032,192.800 61.837 M263.914 151.792 C 270.409 154.816,273.776 162.064,271.184 167.442 C 269.160 171.639,191.153 249.549,186.600 251.920 C 183.835 253.360,180.212 253.398,177.400 252.018 C 173.616 250.160,134.442 211.315,132.203 207.200 C 129.066 201.436,131.892 194.715,138.933 191.197 C 144.845 188.242,147.314 189.463,159.165 201.203 C 169.552 211.492,180.413 221.588,181.347 221.823 C 183.530 222.370,184.424 221.541,218.687 187.224 C 237.871 168.011,253.616 152.553,254.397 152.168 C 257.801 150.489,260.856 150.369,263.914 151.792 " stroke="none" fill="#060907" fill-rule="evenodd"></path>
    </g>
</svg>
