<svg id="svg" version="1.1" width="400" height="400" viewBox="0 0 400 400" xmlns="http://www.w3.org/2000/svg" xmlns:xlink="http://www.w3.org/1999/xlink"><g id="svgg"><path id="path0" d="M206.200 36.813 C 195.160 39.133,187.043 44.223,178.899 53.934 C 174.279 59.443,172.601 60.848,160.943 68.971 C 155.914 72.475,148.470 77.711,144.400 80.607 C 140.330 83.502,135.290 87.010,133.200 88.402 C 131.110 89.793,123.370 95.284,116.000 100.602 C 77.105 128.671,75.935 129.445,67.963 132.328 C 45.389 140.492,32.800 157.777,32.800 180.608 C 32.800 189.910,34.183 195.185,39.298 205.394 C 42.607 212.001,42.611 212.012,45.587 221.800 C 46.857 225.980,49.435 234.350,51.315 240.400 C 53.195 246.450,55.661 254.460,56.794 258.200 C 57.928 261.940,60.806 271.030,63.191 278.400 C 65.575 285.770,68.447 294.829,69.572 298.530 C 72.538 308.292,73.718 310.210,77.600 311.585 C 79.327 312.197,169.310 312.589,174.916 312.009 C 181.478 311.330,183.054 309.186,181.183 303.487 C 180.362 300.985,164.846 269.434,144.359 228.604 C 130.733 201.449,130.086 199.634,132.543 195.474 C 133.945 193.101,148.706 180.445,167.600 165.417 C 171.450 162.355,177.762 157.138,181.627 153.825 C 205.772 133.123,214.531 126.922,221.233 125.783 C 223.305 125.431,226.743 124.706,228.872 124.171 C 236.491 122.260,238.355 122.831,245.609 129.294 C 248.143 131.552,252.553 135.377,255.409 137.793 C 268.347 148.741,270.142 150.468,271.841 153.600 C 272.555 154.916,272.613 156.425,272.824 178.800 C 273.138 212.150,272.753 211.334,291.246 217.880 C 317.972 227.340,338.515 234.000,340.962 233.998 C 352.688 233.987,356.422 219.317,346.047 214.024 C 345.205 213.594,342.465 212.533,339.958 211.665 C 337.451 210.797,331.620 208.651,327.000 206.896 C 322.380 205.140,316.260 202.842,313.400 201.788 C 300.170 196.911,298.797 195.316,298.803 184.827 C 298.809 174.469,299.555 172.493,305.007 168.395 C 311.391 163.596,315.663 158.619,318.908 152.200 C 321.441 147.190,323.362 146.090,332.207 144.592 C 344.390 142.528,345.136 142.989,352.968 157.417 C 367.477 184.144,369.586 187.690,372.182 189.724 C 379.631 195.559,389.699 189.530,388.111 180.186 C 387.503 176.603,364.395 129.622,360.378 123.800 C 354.625 115.462,350.924 115.203,321.800 121.104 C 305.691 124.367,297.194 123.395,290.358 117.504 C 261.599 92.724,260.400 91.357,260.400 83.370 C 260.400 52.095,235.453 30.666,206.200 36.813 M222.686 56.175 C 235.106 60.148,242.971 73.402,240.227 85.735 C 235.914 105.121,211.474 112.619,197.634 98.802 C 179.123 80.321,197.963 48.264,222.686 56.175 M87.721 151.045 C 104.273 154.755,115.270 171.954,111.093 187.600 C 103.165 217.297,60.291 216.769,53.145 186.886 C 48.102 165.802,66.850 146.368,87.721 151.045 M70.000 325.247 C 51.022 326.493,35.177 342.635,36.078 359.806 C 36.365 365.258,38.279 367.261,43.955 368.047 C 48.418 368.666,237.455 368.302,239.308 367.671 C 243.256 366.328,244.922 362.507,244.049 356.802 C 241.629 340.997,229.482 328.450,214.015 325.781 C 210.208 325.124,79.272 324.639,70.000 325.247 " stroke="none" fill="#0b0d0c" fill-rule="evenodd"></path></g></svg>