<svg id="svg" version="1.1" width="400" height="400" viewBox="0 0 400 400" xmlns="http://www.w3.org/2000/svg" xmlns:xlink="http://www.w3.org/1999/xlink"><g id="svgg"><path id="path0" d="M188.430 63.608 C 180.813 65.217,180.164 65.664,158.197 84.400 C 151.061 90.486,143.656 96.690,136.040 102.962 C 133.928 104.702,129.860 108.137,127.000 110.597 C 124.140 113.057,119.640 116.839,117.000 119.001 C 114.360 121.164,110.044 124.748,107.408 126.967 C 104.773 129.185,100.438 132.800,97.775 135.000 C 82.137 147.918,69.289 158.850,68.548 159.868 C 60.856 170.432,66.605 182.929,79.844 184.425 C 82.787 184.758,83.572 184.999,84.400 185.823 L 85.400 186.819 85.446 241.509 L 85.493 296.200 86.401 298.800 C 88.922 306.015,93.388 310.686,100.114 313.145 L 103.000 314.200 132.200 314.200 C 163.598 314.200,163.411 314.212,164.348 312.154 C 164.672 311.444,164.802 302.108,164.808 279.281 C 164.818 240.075,164.795 240.255,170.432 234.229 C 175.215 229.117,178.812 228.000,190.497 228.000 C 204.608 228.000,210.349 231.502,214.104 242.400 L 215.000 245.000 214.896 277.800 C 214.768 317.978,213.981 314.715,223.697 314.286 C 230.060 314.005,230.381 313.699,231.644 306.695 C 234.188 292.591,241.745 279.836,253.062 270.547 C 260.855 264.150,260.861 264.132,257.392 258.063 C 240.092 227.799,255.713 190.844,289.400 182.342 C 291.797 181.737,294.659 181.462,300.800 181.247 C 312.838 180.824,317.282 177.874,318.888 169.238 C 320.227 162.036,317.453 157.392,306.600 148.667 C 303.300 146.013,298.016 141.673,294.857 139.021 C 291.698 136.370,287.018 132.510,284.457 130.443 C 269.065 118.027,262.872 112.988,258.600 109.405 C 252.906 104.629,246.533 99.414,242.161 95.953 C 240.423 94.576,234.050 89.381,228.000 84.408 C 206.908 67.071,205.596 66.121,200.400 64.403 C 197.442 63.426,191.244 63.014,188.430 63.608 M295.200 200.586 C 270.245 205.926,260.927 236.906,279.115 254.064 C 297.855 271.743,329.685 260.511,332.433 235.249 C 334.749 213.961,315.676 196.204,295.200 200.586 M286.400 274.767 C 264.096 279.622,249.371 298.386,250.057 321.078 C 250.225 326.636,251.254 329.357,254.114 331.804 C 257.196 334.443,255.477 334.346,301.408 334.479 L 343.016 334.600 345.698 333.280 C 350.612 330.861,352.361 327.793,352.685 321.025 C 353.687 300.065,340.249 281.845,319.000 275.353 C 314.128 273.864,292.345 273.473,286.400 274.767 " stroke="none" fill="#070707" fill-rule="evenodd" data-darkreader-inline-fill="" data-darkreader-inline-stroke="" ></path></g></svg>