<svg id="svg" version="1.1" width="400" height="400" viewBox="0 0 400 400" xmlns="http://www.w3.org/2000/svg" xmlns:xlink="http://www.w3.org/1999/xlink"><g id="svgg"><path id="path0" d="M186.154 56.802 C 176.287 57.509,172.119 62.042,169.998 74.374 C 167.251 90.349,166.885 90.822,152.942 96.413 C 143.880 100.047,142.568 99.670,128.932 89.519 C 120.310 83.100,114.467 82.227,108.068 86.402 C 105.452 88.108,86.351 106.670,84.212 109.583 C 79.021 116.655,79.999 122.632,88.172 133.790 C 97.672 146.763,97.572 146.245,92.643 156.896 C 90.749 160.987,89.200 164.503,89.200 164.707 C 89.200 165.384,86.893 168.279,85.646 169.167 C 84.275 170.143,78.864 171.453,69.800 173.004 C 53.450 175.800,51.798 179.680,52.494 213.647 C 52.749 226.107,56.597 230.512,69.048 232.596 C 87.665 235.712,87.149 235.407,91.497 245.891 C 97.221 259.695,97.392 258.293,88.437 271.000 C 81.875 280.313,81.018 282.284,81.258 287.518 C 81.512 293.068,82.355 294.269,94.145 305.892 C 108.507 320.049,109.896 321.000,116.200 321.000 C 121.034 321.000,121.980 320.565,131.130 314.126 C 142.858 305.873,143.204 305.822,154.511 310.670 C 167.001 316.024,166.826 315.742,169.821 335.397 C 170.852 342.165,173.226 345.753,178.467 348.467 L 181.000 349.779 196.200 350.155 C 216.983 350.669,219.656 350.240,224.551 345.611 C 227.447 342.872,228.592 340.195,229.624 333.751 C 232.402 316.405,232.272 316.600,244.515 311.377 C 255.930 306.507,255.641 306.462,266.800 314.833 C 283.991 327.729,286.752 326.885,311.800 301.068 C 320.521 292.079,320.309 287.044,310.629 273.272 C 302.279 261.393,302.182 261.004,305.565 252.800 C 312.280 236.513,312.121 236.635,329.000 234.781 C 338.498 233.737,342.858 231.123,345.438 224.922 L 346.571 222.200 346.707 206.266 C 346.926 180.572,345.399 177.760,329.600 174.762 C 318.320 172.621,317.122 172.362,315.548 171.733 C 312.880 170.665,311.248 168.315,308.399 161.440 C 302.643 147.547,302.577 147.928,313.245 133.367 C 320.376 123.633,320.779 117.699,314.810 110.281 C 310.077 104.399,292.836 87.754,290.200 86.522 C 284.498 83.857,279.363 85.050,271.137 90.950 C 260.919 98.279,257.125 100.074,253.665 99.214 C 249.555 98.192,236.782 92.453,235.064 90.856 C 232.976 88.915,231.528 84.035,230.179 74.400 C 228.784 64.430,224.993 59.063,218.200 57.443 C 215.407 56.777,192.813 56.325,186.154 56.802 M210.880 149.985 C 251.199 158.542,267.665 207.035,240.923 238.459 C 208.199 276.913,145.299 253.154,145.456 202.400 C 145.561 168.894,177.899 142.985,210.880 149.985 " stroke="none" fill="#060606" fill-rule="evenodd" data-darkreader-inline-fill="" data-darkreader-inline-stroke="" ></path></g></svg>