<svg id="svg" version="1.1" width="400" height="400" viewBox="0 0 400 400" xmlns="http://www.w3.org/2000/svg" xmlns:xlink="http://www.w3.org/1999/xlink"><g id="svgg"><path id="path0" d="M170.800 35.983 C 149.528 36.317,150.509 35.033,150.319 62.800 C 150.152 87.152,150.591 88.269,161.131 90.340 C 169.040 91.895,169.894 93.877,169.980 110.880 C 170.041 122.830,170.406 123.000,196.000 123.000 L 214.600 123.000 216.497 122.066 C 220.400 120.143,220.793 118.808,221.163 106.200 C 221.560 92.667,221.935 91.954,229.354 90.596 C 240.688 88.523,241.000 87.767,241.000 62.400 L 241.000 43.400 239.851 41.060 C 238.433 38.172,236.279 36.670,232.649 36.038 C 230.044 35.584,197.978 35.556,170.800 35.983 M168.800 132.781 C 158.159 133.126,156.545 133.521,153.720 136.466 C 150.655 139.663,150.635 139.793,150.362 159.000 C 150.098 177.584,150.056 177.955,147.782 181.896 C 147.085 183.105,136.899 193.579,119.868 210.600 C 81.112 249.333,84.183 243.870,84.232 274.000 C 84.281 304.213,84.149 303.832,100.409 320.762 C 132.995 354.690,136.487 357.784,142.200 357.785 C 152.744 357.788,157.059 347.617,151.273 336.400 C 150.422 334.750,146.474 327.086,142.501 319.368 C 138.527 311.651,133.704 302.571,131.782 299.192 C 125.653 288.413,124.400 285.087,124.400 279.589 C 124.400 272.318,126.223 269.699,137.608 260.618 C 140.354 258.428,144.233 255.333,146.230 253.741 C 148.226 252.149,152.006 248.925,154.630 246.576 C 169.129 233.598,166.759 234.238,198.600 234.695 L 220.600 235.010 222.904 236.085 C 225.756 237.415,228.570 239.542,236.000 245.982 C 243.479 252.465,247.614 255.924,255.000 261.874 C 265.975 270.715,267.004 272.272,266.992 280.000 C 266.982 286.060,266.776 286.661,261.558 295.800 C 259.548 299.320,255.254 307.330,252.015 313.600 C 248.777 319.870,244.396 328.330,242.281 332.401 C 237.617 341.374,237.127 342.666,237.102 346.036 C 237.052 352.798,242.003 357.774,248.800 357.791 C 255.318 357.808,253.890 359.058,288.803 322.773 C 307.642 303.192,307.000 304.906,307.000 274.200 C 307.000 243.113,311.460 250.524,264.751 204.000 C 238.873 178.224,241.532 183.189,241.188 160.000 C 240.762 131.266,242.958 132.864,203.600 132.638 C 189.410 132.556,173.750 132.621,168.800 132.781 M200.539 156.126 C 208.365 159.730,210.524 169.620,204.887 176.040 C 200.212 181.364,190.930 181.313,185.721 175.934 C 176.318 166.223,188.142 150.417,200.539 156.126 " stroke="none" fill="#0d0f0e" fill-rule="evenodd" data-darkreader-inline-fill="" data-darkreader-inline-stroke="" ></path></g></svg>