<svg id="svg" version="1.1" width="400" height="400" viewBox="0 0 400 400" xmlns="http://www.w3.org/2000/svg" xmlns:xlink="http://www.w3.org/1999/xlink"><g id="svgg"><path id="path0" d="M194.315 40.221 C 190.484 41.150,186.488 43.429,183.560 46.357 C 180.081 49.837,178.736 52.499,176.614 60.117 C 175.357 64.626,172.747 66.378,166.365 66.995 C 158.922 67.715,155.397 71.699,154.715 80.161 C 153.555 94.570,154.780 100.578,159.400 103.136 C 160.911 103.972,246.918 104.412,250.670 103.602 C 256.826 102.275,257.800 99.979,257.800 86.800 C 257.800 71.589,255.646 68.283,244.679 66.659 C 238.333 65.719,236.911 64.393,234.754 57.400 C 231.708 47.526,226.268 41.918,218.049 40.175 C 214.415 39.405,197.546 39.437,194.315 40.221 M113.591 72.510 C 106.935 74.780,101.899 80.135,99.964 87.000 C 99.484 88.700,99.400 107.010,99.400 209.200 L 99.400 329.400 100.297 332.252 C 102.370 338.845,109.064 344.723,115.955 346.000 C 119.875 346.727,294.127 346.531,296.947 345.797 C 304.572 343.811,310.167 338.105,312.045 330.400 C 312.487 328.585,312.578 307.201,312.564 208.200 L 312.547 88.200 311.641 85.615 C 308.032 75.324,302.174 71.966,287.351 71.695 C 273.748 71.447,274.803 70.067,274.792 88.126 C 274.783 103.843,274.566 105.847,272.404 110.254 C 269.754 115.654,264.180 119.898,258.080 121.161 C 253.696 122.069,156.159 121.747,153.142 120.815 C 146.326 118.709,141.360 113.941,138.862 107.105 L 137.800 104.200 137.800 89.069 L 137.800 73.937 136.494 72.769 L 135.187 71.600 125.694 71.610 C 116.945 71.620,115.995 71.691,113.591 72.510 M251.857 155.424 C 258.033 158.404,260.998 166.401,257.889 171.691 C 256.926 173.328,229.596 201.327,206.828 224.000 C 197.297 233.490,193.533 235.019,187.600 231.810 C 183.451 229.565,156.597 202.324,154.813 198.550 C 150.460 189.342,160.957 178.717,170.217 182.956 C 172.073 183.806,174.185 185.669,181.600 193.000 C 190.461 201.760,190.747 202.000,192.327 202.000 C 194.509 202.000,194.024 202.447,218.563 177.832 C 244.155 152.160,244.547 151.897,251.857 155.424 M269.043 256.789 C 275.900 259.775,273.822 270.128,266.159 271.163 C 262.090 271.712,146.690 271.355,144.919 270.788 C 136.915 268.223,137.703 257.455,146.000 256.014 C 149.968 255.325,267.379 256.065,269.043 256.789 M242.787 295.698 C 249.771 297.475,250.683 306.645,244.207 309.978 L 242.222 311.000 193.811 311.000 L 145.400 311.000 143.695 310.089 C 137.863 306.974,137.980 299.088,143.902 296.144 C 146.348 294.929,238.135 294.515,242.787 295.698 " stroke="none" fill="#060606" fill-rule="evenodd" data-darkreader-inline-fill="" data-darkreader-inline-stroke="" ></path></g></svg>