<svg id="svg" version="1.1" width="400" height="400" viewBox="0 0 400 400" xmlns="http://www.w3.org/2000/svg" xmlns:xlink="http://www.w3.org/1999/xlink"><g id="svgg"><path id="path0" d="M194.400 84.276 C 155.259 87.240,124.308 99.496,97.680 122.576 C 54.696 159.833,35.771 213.505,45.202 271.400 C 47.023 282.577,52.940 302.375,55.742 306.664 C 61.027 314.753,72.747 312.986,75.449 303.692 C 76.309 300.732,76.008 299.152,72.968 290.683 C 66.430 272.468,64.167 259.097,64.526 240.800 C 64.932 220.043,65.196 219.686,77.818 222.828 C 87.874 225.332,92.139 224.182,94.837 218.240 C 97.783 211.755,93.816 205.912,84.769 203.408 C 72.249 199.943,71.739 199.431,74.053 192.664 C 78.773 178.865,90.976 159.721,101.677 149.327 C 106.806 144.346,107.684 144.376,112.467 149.701 C 122.913 161.330,126.921 162.867,132.952 157.559 C 138.726 152.476,138.146 147.669,130.634 138.356 C 124.104 130.261,124.149 129.829,132.005 125.181 C 146.022 116.886,162.553 111.052,180.763 107.973 C 189.718 106.459,189.725 106.466,190.025 117.741 C 190.228 125.352,190.340 126.400,191.146 128.200 C 195.001 136.813,205.193 136.703,209.634 128.000 C 210.462 126.376,210.579 125.436,210.826 118.377 C 211.225 106.983,211.395 106.793,220.263 107.830 C 233.543 109.384,247.379 113.691,260.600 120.385 C 278.229 129.311,278.299 129.435,270.790 138.429 C 265.150 145.184,264.400 146.527,264.400 149.881 C 264.400 155.405,269.374 160.400,274.875 160.400 C 278.714 160.400,281.391 158.511,287.266 151.661 C 294.040 143.760,294.385 143.707,300.123 149.659 C 310.821 160.755,320.930 176.355,326.549 190.439 C 329.991 199.065,329.586 199.682,318.414 202.833 C 314.154 204.035,311.664 204.966,310.414 205.825 C 304.065 210.189,304.672 219.684,311.523 223.155 C 314.747 224.790,315.920 224.710,325.531 222.199 C 335.439 219.611,335.826 220.237,336.272 239.600 C 336.711 258.644,334.279 273.309,327.415 293.000 C 323.455 304.363,326.930 311.800,336.200 311.800 C 343.580 311.800,345.756 308.758,351.192 290.840 C 365.367 244.122,358.346 194.512,331.861 154.255 C 315.004 128.630,285.653 105.207,256.600 94.191 C 238.343 87.270,211.461 82.984,194.400 84.276 M249.200 174.467 C 248.042 175.053,242.622 180.030,234.000 188.423 C 203.315 218.296,203.699 217.974,197.712 218.788 C 177.760 221.500,166.293 242.594,174.989 260.590 C 182.111 275.329,201.405 280.943,214.980 272.225 C 226.061 265.109,230.383 254.722,228.342 240.112 C 227.789 236.159,228.036 235.342,231.828 228.566 C 234.244 224.247,248.081 201.515,253.232 193.400 C 258.949 184.396,260.126 180.938,258.649 177.487 C 257.111 173.893,252.957 172.565,249.200 174.467 M139.180 301.345 C 129.002 304.090,128.033 317.763,137.714 322.034 L 139.800 322.954 200.636 322.955 L 261.472 322.956 263.718 321.858 C 272.872 317.379,271.153 303.372,261.187 301.235 C 258.115 300.576,141.641 300.681,139.180 301.345 " stroke="none" fill="#0b0b0b" fill-rule="evenodd" data-darkreader-inline-fill="" data-darkreader-inline-stroke="" ></path></g></svg>