<svg id="svg" version="1.1" width="400" height="400" viewBox="0 0 400 400" xmlns="http://www.w3.org/2000/svg" xmlns:xlink="http://www.w3.org/1999/xlink"><g id="svgg"><path id="path0" d="M298.200 72.171 C 272.677 78.068,262.557 108.900,280.070 127.402 C 301.297 149.826,338.445 135.590,338.525 105.000 C 338.579 83.919,318.412 67.500,298.200 72.171 M198.200 104.442 C 194.634 105.164,190.780 107.432,183.600 113.035 C 157.466 133.428,148.622 140.639,146.942 142.922 C 139.513 153.013,145.440 167.322,157.991 169.598 C 163.190 170.541,167.585 169.022,174.172 164.006 C 199.121 145.007,202.279 142.787,204.326 142.814 C 205.953 142.835,224.774 152.377,225.716 153.659 C 227.078 155.510,228.345 153.876,205.639 179.548 C 186.872 200.767,184.161 204.743,183.111 212.584 C 181.549 224.263,186.597 233.035,200.600 242.975 C 203.680 245.161,210.340 250.117,215.400 253.989 C 220.460 257.860,226.446 262.344,228.702 263.953 C 236.469 269.492,236.751 268.298,224.562 281.458 C 216.040 290.659,207.688 299.908,204.060 304.160 C 196.908 312.543,198.426 325.497,207.227 331.186 C 212.411 334.537,219.102 334.956,224.536 332.270 C 227.724 330.695,234.319 323.958,261.800 294.209 C 266.860 288.731,272.604 282.528,274.564 280.424 C 281.527 272.951,282.910 265.925,278.968 258.046 C 277.378 254.866,275.131 252.630,265.599 244.735 C 237.909 221.803,238.685 222.648,241.500 218.499 C 243.488 215.570,261.954 194.549,262.931 194.104 C 265.000 193.162,266.132 194.468,270.829 203.213 C 276.979 214.663,280.416 217.756,288.129 218.783 C 292.205 219.326,334.828 219.325,338.588 218.781 C 354.692 216.454,358.254 194.289,343.678 187.110 L 341.020 185.800 321.378 185.600 L 301.736 185.400 300.278 184.287 C 299.094 183.383,297.869 181.281,293.753 173.087 C 275.243 136.236,280.080 140.852,237.831 119.728 C 203.905 102.765,204.795 103.108,198.200 104.442 M55.889 172.006 C 45.434 173.815,43.565 187.368,53.122 192.075 L 55.000 193.000 80.994 193.117 C 109.805 193.246,111.009 193.171,114.191 191.058 C 121.522 186.191,120.601 176.678,112.427 172.844 L 110.200 171.800 84.000 171.738 C 69.590 171.703,56.940 171.824,55.889 172.006 M42.742 226.947 C 31.881 229.312,31.324 244.325,41.991 247.197 C 43.877 247.705,102.934 247.774,104.611 247.270 C 114.423 244.324,115.850 231.992,106.895 227.542 L 105.000 226.600 75.000 226.527 C 52.519 226.473,44.434 226.578,42.742 226.947 M164.340 231.500 C 163.426 232.325,159.692 236.240,156.042 240.200 C 152.392 244.160,145.894 251.138,141.603 255.707 C 131.572 266.385,126.707 271.632,122.030 276.819 C 119.956 279.119,113.637 285.950,107.988 292.000 C 91.314 309.857,90.362 310.908,88.962 313.000 C 78.750 328.255,94.685 347.461,111.135 339.725 C 114.268 338.252,122.450 329.796,157.110 292.213 C 160.350 288.701,166.780 281.810,171.400 276.901 C 190.908 256.171,190.193 257.569,184.084 252.112 C 176.003 244.894,172.001 239.600,170.032 233.525 C 168.816 229.771,166.980 229.118,164.340 231.500 " stroke="none" fill="#080808" fill-rule="evenodd" data-darkreader-inline-fill="" data-darkreader-inline-stroke="" ></path></g></svg>