<svg id="svg" version="1.1" width="400" height="400" viewBox="0 0 400 400" xmlns="http://www.w3.org/2000/svg" xmlns:xlink="http://www.w3.org/1999/xlink"><g id="svgg"><path id="path0" d="M177.800 64.670 C 168.069 66.038,161.829 72.323,158.210 84.400 C 154.791 95.807,158.670 94.554,126.000 94.800 L 99.400 95.000 97.143 96.108 C 86.770 101.202,87.287 116.279,97.946 119.482 C 101.500 120.550,305.020 120.565,308.471 119.497 C 319.292 116.149,319.893 101.022,309.400 96.121 L 307.000 95.000 280.400 94.968 C 247.216 94.928,251.083 96.103,247.402 84.941 C 243.125 71.968,237.495 66.081,228.196 64.856 C 225.482 64.499,180.208 64.332,177.800 64.670 M127.600 135.591 C 114.764 135.826,114.226 135.944,111.629 139.088 C 109.697 141.428,109.459 142.926,109.962 149.586 C 110.204 152.784,110.587 158.550,110.813 162.400 C 111.287 170.454,112.629 188.325,113.202 194.200 C 113.416 196.400,113.952 204.140,114.392 211.400 C 114.832 218.660,115.369 226.580,115.585 229.000 C 116.478 238.969,118.670 268.110,119.181 276.800 C 120.531 299.750,120.678 300.769,123.454 306.391 C 127.050 313.674,134.008 319.464,141.458 321.371 C 145.059 322.293,261.199 322.319,265.101 321.398 C 273.965 319.309,281.828 311.462,284.559 301.982 C 285.326 299.317,286.511 286.545,287.595 269.254 C 288.041 262.134,288.590 253.764,288.815 250.654 C 289.040 247.544,289.486 241.310,289.807 236.800 C 290.129 232.290,290.659 225.540,290.985 221.800 C 291.311 218.060,291.768 211.310,291.999 206.800 C 292.231 202.290,292.771 194.190,293.198 188.800 C 294.721 169.606,295.991 150.072,295.994 145.800 C 295.997 140.742,294.444 137.890,290.800 136.262 C 288.977 135.448,163.566 134.932,127.600 135.591 M164.256 170.029 C 165.770 170.591,168.112 172.952,168.882 174.693 C 169.759 176.674,170.090 276.717,169.230 279.567 C 166.863 287.410,156.001 288.165,153.002 280.695 C 151.964 278.108,151.870 176.891,152.904 174.948 C 155.410 170.243,159.754 168.360,164.256 170.029 M248.842 170.421 C 250.665 171.352,252.627 173.872,253.209 176.032 C 253.476 177.026,253.578 194.911,253.507 228.470 L 253.400 279.400 252.537 281.000 C 249.118 287.335,241.276 287.655,237.846 281.600 L 236.600 279.400 236.475 228.800 C 236.335 171.944,236.192 174.970,239.165 171.996 C 242.029 169.133,245.279 168.604,248.842 170.421 M205.913 170.221 C 207.799 171.009,209.435 172.558,210.537 174.600 L 211.400 176.200 211.400 228.000 L 211.400 279.800 210.278 281.709 C 207.326 286.730,200.523 287.490,196.674 283.229 C 194.195 280.485,194.316 283.276,194.256 227.659 L 194.200 176.600 195.145 174.681 C 197.189 170.530,201.941 168.562,205.913 170.221 " stroke="none" fill="#0e0f0f" fill-rule="evenodd" data-darkreader-inline-fill="" data-darkreader-inline-stroke="" ></path></g></svg>