<svg id="svg" version="1.1" width="400" height="400" viewBox="0 0 400 400" xmlns="http://www.w3.org/2000/svg" xmlns:xlink="http://www.w3.org/1999/xlink"><g id="svgg"><path id="path0" d="M264.000 60.825 C 245.277 62.898,233.855 68.004,220.773 80.146 C 211.163 89.066,164.736 136.275,163.236 138.651 C 159.231 145.001,161.646 148.346,173.600 153.006 C 187.069 158.256,183.334 160.481,215.800 127.871 C 230.100 113.508,243.060 100.813,244.600 99.658 C 266.447 83.282,296.846 90.667,307.035 114.828 C 311.971 126.529,311.747 138.965,306.411 149.579 C 302.792 156.775,298.387 161.651,268.600 191.430 C 246.832 213.192,246.951 213.087,240.301 216.336 C 230.895 220.931,227.614 226.634,229.950 234.326 C 233.653 246.518,250.409 247.819,264.708 237.024 C 270.599 232.577,318.167 185.837,325.002 177.780 C 365.924 129.542,326.473 53.906,264.000 60.825 M218.290 165.346 C 214.799 166.816,212.869 168.509,199.200 182.088 C 165.770 215.298,156.893 224.514,155.507 227.449 C 149.807 239.525,162.402 252.253,174.418 246.559 C 177.912 244.903,181.859 241.202,209.626 213.540 C 237.389 185.882,237.748 185.436,237.782 178.592 C 237.833 168.365,227.611 161.418,218.290 165.346 M142.200 167.842 C 136.964 169.097,130.697 172.131,126.245 175.565 C 123.519 177.668,94.652 205.917,86.151 214.800 C 82.466 218.650,75.477 225.850,70.619 230.800 C 61.614 239.974,58.925 243.344,55.296 250.000 C 45.623 267.742,43.759 289.449,50.211 309.192 C 65.657 356.451,125.177 373.772,163.000 342.014 C 166.867 338.767,226.210 278.563,228.348 275.719 C 234.495 267.538,231.496 262.955,216.600 257.762 C 207.790 254.691,207.477 254.870,188.588 273.775 C 136.026 326.383,137.419 325.279,121.657 326.819 C 89.243 329.988,66.665 296.066,81.396 266.331 C 84.429 260.210,86.389 257.989,108.334 235.800 C 147.176 196.528,145.406 198.169,153.245 194.159 C 160.479 190.459,162.988 187.124,162.990 181.200 C 162.995 171.388,153.326 165.175,142.200 167.842 " stroke="none" fill="#0d0e0e" fill-rule="evenodd"></path></g></svg>