<svg id="svg" version="1.1" width="400" height="400" viewBox="0 0 400 400" xmlns="http://www.w3.org/2000/svg" xmlns:xlink="http://www.w3.org/1999/xlink"><g id="svgg"><path id="path0" d="M108.600 38.842 C 98.157 39.546,91.185 45.254,88.358 55.414 L 87.472 58.600 87.442 183.600 C 87.409 320.436,87.227 310.333,89.831 315.843 C 92.298 321.062,97.055 325.191,102.552 326.887 L 105.400 327.766 174.458 327.783 C 241.818 327.800,243.536 327.781,244.358 327.038 C 245.612 325.903,245.396 324.737,243.389 321.805 C 231.188 303.983,227.604 284.324,232.669 263.000 C 239.155 235.698,265.156 212.862,293.010 210.003 C 297.499 209.543,298.717 208.932,299.477 206.763 C 300.104 204.975,300.207 133.363,299.587 131.129 C 298.932 128.770,296.770 125.928,294.630 124.612 L 292.661 123.400 264.830 123.378 C 231.275 123.351,230.910 123.293,224.596 116.979 C 218.832 111.215,218.664 110.023,219.014 77.456 C 219.321 48.921,219.192 45.977,217.528 43.283 C 216.332 41.348,213.878 39.710,211.471 39.241 C 209.185 38.795,114.732 38.429,108.600 38.842 M234.349 54.261 C 233.897 54.806,233.800 59.185,233.800 79.027 L 233.800 103.131 235.004 104.844 C 235.731 105.879,236.990 106.959,238.185 107.574 L 240.164 108.592 263.582 108.465 C 289.101 108.327,288.800 108.355,288.800 106.115 C 288.800 105.236,284.251 100.504,263.046 79.324 C 235.617 51.927,236.005 52.266,234.349 54.261 M223.800 179.720 C 231.994 183.409,231.505 194.564,223.048 196.841 C 220.751 197.459,137.417 197.450,135.842 196.831 C 127.295 193.471,128.358 181.416,137.400 179.168 C 140.349 178.434,222.105 178.957,223.800 179.720 M295.800 224.642 C 295.140 224.739,292.710 225.102,290.400 225.449 C 259.048 230.158,237.663 265.764,247.463 296.941 C 261.393 341.256,318.922 350.323,346.116 312.489 C 360.858 291.977,358.860 261.565,341.552 243.032 C 329.753 230.397,310.173 222.527,295.800 224.642 M202.701 233.425 C 209.824 236.975,209.175 246.302,201.600 249.231 C 199.811 249.923,143.076 250.292,138.884 249.640 C 130.075 248.268,127.032 238.764,133.938 234.194 C 136.424 232.549,137.633 232.490,169.821 232.444 L 200.643 232.400 202.701 233.425 M304.972 247.363 C 310.876 250.822,310.434 259.214,304.200 262.054 C 298.968 264.437,292.000 260.032,292.000 254.342 C 292.000 248.059,299.383 244.087,304.972 247.363 M305.095 271.746 C 306.545 272.495,307.436 273.511,308.154 275.229 C 308.955 277.146,309.543 306.117,308.834 308.705 C 306.754 316.292,294.916 316.444,292.824 308.911 C 291.988 305.902,292.290 276.881,293.177 274.926 C 294.921 271.085,300.789 269.519,305.095 271.746 " stroke="none" fill="#070a08" fill-rule="evenodd" data-darkreader-inline-fill="" data-darkreader-inline-stroke="" ></path></g></svg>