<svg id="svg" version="1.1" width="400" height="400" viewBox="0 0 400 400" xmlns="http://www.w3.org/2000/svg" xmlns:xlink="http://www.w3.org/1999/xlink"><g id="svgg"><path id="path0" d="M65.200 69.198 C 54.947 70.634,52.851 83.686,62.200 87.877 C 63.638 88.521,65.626 88.615,81.800 88.797 C 101.210 89.016,101.062 88.998,102.196 91.192 C 102.996 92.740,103.073 156.491,102.277 158.763 C 101.258 161.672,100.858 161.768,88.472 162.055 C 82.382 162.197,76.677 162.508,75.794 162.746 C 64.379 165.831,63.637 184.096,74.710 189.437 C 75.882 190.003,77.669 190.211,83.084 190.415 C 91.853 190.746,92.054 190.840,103.600 200.029 C 108.330 203.794,116.790 210.314,122.400 214.519 C 128.010 218.725,135.120 224.157,138.200 226.592 C 141.280 229.028,146.410 232.979,149.600 235.373 C 152.790 237.768,159.503 242.877,164.518 246.727 C 178.964 257.818,178.848 256.622,166.386 266.109 C 152.887 276.386,143.739 283.384,133.800 291.039 C 128.080 295.445,119.900 301.738,115.621 305.025 C 111.343 308.311,105.313 312.958,102.221 315.351 C 94.691 321.180,93.931 321.508,86.971 321.936 C 76.264 322.594,74.166 325.228,74.455 337.647 C 74.620 344.728,75.303 346.576,78.609 348.887 C 81.486 350.897,77.664 350.841,203.283 350.717 L 321.800 350.600 323.600 349.762 C 328.483 347.489,329.725 344.566,329.537 335.789 C 329.314 325.384,327.070 322.848,317.327 321.994 C 314.734 321.766,311.914 321.392,311.060 321.162 C 309.439 320.726,297.010 311.550,281.600 299.414 C 277.090 295.862,267.820 288.740,261.000 283.587 C 244.170 270.870,232.067 261.421,230.500 259.776 C 227.558 256.689,227.693 256.542,246.861 241.898 C 252.505 237.587,260.515 231.383,264.661 228.113 C 268.807 224.842,274.810 220.205,278.000 217.808 C 281.190 215.410,286.770 211.107,290.400 208.244 C 314.308 189.389,311.276 191.130,320.800 190.788 C 333.063 190.348,337.000 186.803,337.000 176.200 C 337.000 164.098,333.424 162.189,310.400 161.997 C 304.801 161.950,303.059 161.517,301.837 159.871 C 300.782 158.448,300.489 93.809,301.527 91.352 C 302.506 89.033,302.562 89.026,322.000 88.804 C 339.628 88.602,339.818 88.591,341.691 87.669 C 349.320 83.912,348.458 71.845,340.389 69.437 C 338.358 68.830,69.490 68.597,65.200 69.198 M280.422 89.528 C 282.702 90.708,282.593 89.009,282.682 124.800 C 282.770 160.430,282.774 160.360,280.685 161.490 C 278.545 162.648,124.428 162.474,122.862 161.311 C 120.741 159.737,120.812 160.978,120.807 125.400 C 120.803 90.193,120.770 90.891,122.494 89.516 C 123.424 88.774,278.987 88.786,280.422 89.528 M251.866 191.152 C 263.524 191.715,262.842 192.578,233.200 214.794 C 230.450 216.855,225.140 220.993,221.400 223.989 C 201.027 240.309,203.698 239.754,191.406 230.216 C 187.663 227.312,179.650 221.187,173.600 216.607 C 143.553 193.857,141.712 191.944,149.125 191.187 C 152.758 190.816,244.263 190.785,251.866 191.152 M203.713 277.341 C 204.421 277.638,207.250 279.657,210.000 281.826 C 212.750 283.995,219.500 289.178,225.000 293.344 C 246.148 309.362,257.006 318.433,256.733 319.855 C 256.358 321.797,257.816 321.746,202.000 321.774 C 145.908 321.802,147.654 321.863,147.268 319.857 C 147.025 318.598,153.646 313.042,172.600 298.596 C 175.460 296.416,180.770 292.276,184.400 289.395 C 197.447 279.041,200.131 277.157,202.313 276.818 C 202.375 276.808,203.005 277.043,203.713 277.341 " stroke="none" fill="#0b0c0c" fill-rule="evenodd" data-darkreader-inline-fill="" data-darkreader-inline-stroke="" ></path></g></svg>