<svg id="svg" version="1.1" width="400" height="400" viewBox="0 0 400 400" xmlns="http://www.w3.org/2000/svg" xmlns:xlink="http://www.w3.org/1999/xlink"><g id="svgg"><path id="path0" d="M192.968 37.775 C 191.851 38.090,182.491 42.516,172.168 47.609 C 145.191 60.920,133.542 66.376,118.600 72.700 C 95.378 82.527,92.622 83.625,82.197 87.202 C 70.707 91.144,67.728 93.471,66.062 99.807 C 65.131 103.345,65.378 177.418,66.355 187.600 C 72.972 256.600,113.064 312.215,178.600 343.304 C 197.152 352.105,197.257 352.104,215.600 343.028 C 280.137 311.093,319.373 257.052,326.682 190.033 L 327.754 180.200 327.760 140.600 L 327.766 101.000 326.870 98.742 C 324.526 92.836,322.641 91.520,310.070 87.014 C 304.642 85.068,296.600 81.953,292.200 80.093 C 287.800 78.232,279.970 74.948,274.800 72.796 C 262.861 67.826,263.815 68.256,248.000 60.698 C 224.155 49.302,221.124 47.815,212.850 43.449 C 201.047 37.222,198.004 36.353,192.968 37.775 M259.946 139.669 C 266.725 142.946,270.299 150.328,267.628 155.537 C 266.644 157.458,210.386 214.431,192.323 231.800 C 179.933 243.714,177.366 244.087,167.795 235.359 C 158.481 226.865,128.127 196.274,127.407 194.655 C 123.257 185.323,136.909 173.669,145.200 179.466 C 146.190 180.159,153.094 186.717,160.543 194.040 C 176.431 209.661,176.360 209.600,178.536 209.600 C 180.159 209.600,180.226 209.536,213.981 175.650 C 232.581 156.978,248.470 141.210,249.289 140.611 C 252.484 138.274,256.352 137.932,259.946 139.669 " stroke="none" fill="#080a08" fill-rule="evenodd" data-darkreader-inline-fill="" data-darkreader-inline-stroke="" ></path></g></svg>