<svg id="svg" version="1.1" width="400" height="400" viewBox="0 0 400 400" xmlns="http://www.w3.org/2000/svg" xmlns:xlink="http://www.w3.org/1999/xlink"><g id="svgg"><path id="path0" d="M155.916 66.777 C 133.097 69.909,117.194 76.576,101.800 89.465 C 65.535 119.829,54.417 165.837,72.381 211.200 C 81.752 234.861,106.836 258.087,132.200 266.587 C 163.623 277.118,193.213 273.714,222.610 256.188 C 230.327 251.586,229.713 251.520,236.600 257.700 C 240.472 261.174,242.479 263.298,243.497 265.000 C 244.851 267.260,262.200 284.709,298.405 320.223 C 311.152 332.726,315.686 334.275,324.344 329.085 C 334.474 323.013,335.059 312.687,325.800 303.379 C 294.040 271.452,267.233 245.658,264.145 244.051 C 261.448 242.648,260.096 241.546,256.245 237.613 C 250.376 231.616,250.306 231.258,253.946 225.715 C 287.335 174.865,268.494 104.915,214.059 77.632 C 195.375 68.268,174.056 64.288,155.916 66.777 M175.800 92.574 C 236.680 99.186,266.657 173.924,226.510 219.003 C 177.921 273.561,89.710 241.676,89.838 169.600 C 89.921 123.223,129.711 87.568,175.800 92.574 " stroke="none" fill="#0b0c0c" fill-rule="evenodd" data-darkreader-inline-fill="" data-darkreader-inline-stroke="" ></path></g></svg>