<svg id="svg" version="1.1" width="400" height="400" viewBox="0 0 400 400" xmlns="http://www.w3.org/2000/svg" xmlns:xlink="http://www.w3.org/1999/xlink"><g id="svgg"><path id="path0" d="M195.000 68.018 C 131.746 71.636,79.850 119.009,70.132 182.000 C 69.115 188.592,69.114 188.644,68.800 226.600 C 68.593 251.778,68.343 264.964,68.061 265.679 C 67.185 267.901,66.188 268.162,57.544 268.430 C 47.884 268.731,46.588 269.172,44.689 272.807 L 43.555 274.978 43.677 289.189 C 43.810 304.544,43.820 304.618,46.062 306.650 C 48.005 308.411,48.731 308.550,57.400 308.824 C 70.275 309.230,69.317 307.963,69.604 324.973 C 69.876 341.106,70.759 343.407,77.469 345.480 C 80.397 346.385,135.445 346.483,138.637 345.590 C 143.793 344.146,145.274 341.158,145.591 331.555 C 145.974 319.933,143.571 320.978,170.800 320.593 C 193.233 320.276,195.965 320.264,233.474 320.328 C 263.249 320.378,260.555 319.331,260.923 331.000 C 261.226 340.612,262.451 343.570,266.893 345.418 C 268.593 346.125,325.419 346.401,328.400 345.716 C 335.119 344.173,336.274 341.135,336.512 324.381 C 336.743 308.104,335.948 309.163,348.200 308.804 C 362.146 308.395,362.396 308.036,362.396 288.400 C 362.396 268.978,361.955 268.400,347.160 268.400 C 339.865 268.400,338.550 268.113,337.512 266.296 C 337.107 265.587,336.997 257.930,336.987 229.600 C 336.973 189.120,336.786 185.860,333.739 172.825 C 319.904 113.644,269.998 71.303,210.200 68.012 C 202.394 67.582,202.619 67.582,195.000 68.018 M211.400 88.389 C 265.476 91.427,311.940 136.509,317.364 191.200 C 318.063 198.252,318.280 262.059,317.615 264.960 C 316.968 267.782,316.298 268.110,310.476 268.454 C 298.749 269.146,295.330 270.556,289.263 277.200 C 267.220 301.340,247.732 311.954,216.800 316.664 C 183.130 321.792,146.320 308.509,123.000 282.815 C 112.210 270.926,108.935 269.089,97.600 268.561 C 91.166 268.261,89.537 267.766,88.848 265.900 C 88.487 264.923,87.806 224.907,87.815 205.200 C 87.827 180.658,93.198 161.967,105.920 142.200 C 129.889 104.957,167.231 85.907,211.400 88.389 M193.176 120.399 C 128.402 127.804,96.169 207.275,138.249 255.822 C 156.540 276.924,176.556 286.200,203.800 286.200 C 271.794 286.200,310.054 209.842,270.241 153.600 C 253.476 129.918,223.369 116.947,193.176 120.399 M210.755 139.954 C 221.556 143.724,227.674 151.088,229.669 162.718 C 231.206 171.684,226.026 181.634,216.333 188.335 C 212.018 191.317,211.818 191.833,212.300 198.745 C 212.801 205.933,213.415 207.135,218.600 211.077 C 223.252 214.614,225.255 214.841,231.400 212.525 C 239.848 209.341,245.496 209.510,252.720 213.161 C 274.246 224.042,273.112 253.250,250.815 262.256 C 237.916 267.466,221.879 259.951,216.554 246.200 C 215.558 243.628,215.458 242.847,215.324 236.600 C 215.147 228.361,215.041 228.089,210.616 224.548 C 203.913 219.185,202.217 219.136,196.162 224.128 C 191.582 227.904,191.377 228.368,191.522 234.681 C 191.828 248.036,185.103 257.590,171.977 262.450 C 150.798 270.290,130.417 247.837,140.019 227.243 C 146.750 212.807,161.397 207.424,176.933 213.676 C 181.626 215.565,182.799 215.507,186.290 213.218 C 191.992 209.478,193.297 206.904,193.525 198.951 C 193.728 191.841,193.531 191.350,189.241 188.279 C 180.452 181.986,176.658 175.092,176.649 165.400 C 176.634 148.108,194.955 134.439,210.755 139.954 M201.600 158.255 C 196.769 160.138,194.732 165.044,197.179 168.903 C 202.043 176.572,214.407 170.025,209.825 162.207 C 208.150 159.349,203.960 157.336,201.600 158.255 M238.146 230.744 C 233.227 233.835,232.910 240.774,237.549 243.800 C 245.402 248.922,253.266 237.068,245.796 231.369 C 243.806 229.852,240.054 229.545,238.146 230.744 M161.800 230.946 C 156.563 233.387,155.686 240.384,160.185 243.816 C 166.063 248.299,174.709 241.006,171.090 234.617 C 169.222 231.319,164.772 229.561,161.800 230.946 " stroke="none" fill="#0b0c0c" fill-rule="evenodd" data-darkreader-inline-fill="" data-darkreader-inline-stroke="" ></path></g></svg>