<svg id="svg" version="1.1" width="400" height="400" viewBox="0 0 400 400" xmlns="http://www.w3.org/2000/svg" xmlns:xlink="http://www.w3.org/1999/xlink"><g id="svgg"><path id="path0" d="M60.527 71.797 C 52.457 73.564,46.195 79.416,43.949 87.290 L 43.005 90.600 42.972 170.000 C 42.932 268.111,43.064 277.863,44.488 281.886 C 46.260 286.889,50.061 291.393,54.361 293.582 C 59.058 295.974,54.034 295.782,117.600 296.000 C 172.127 296.187,175.881 296.244,177.085 296.902 C 179.065 297.985,179.271 299.319,179.127 310.092 L 179.000 319.583 177.892 320.692 L 176.783 321.800 154.692 322.123 C 129.627 322.489,129.736 322.476,126.393 325.482 C 119.308 331.852,121.321 344.552,129.807 347.019 C 131.566 347.531,140.955 347.595,200.418 347.505 L 269.000 347.400 270.804 346.565 C 280.460 342.096,278.937 326.209,268.539 322.935 C 266.919 322.424,263.084 322.309,245.200 322.230 C 221.234 322.126,221.738 322.185,220.544 319.327 C 219.699 317.305,219.548 300.801,220.357 298.881 C 221.571 296.001,216.830 296.224,281.800 295.990 C 328.705 295.821,340.515 295.676,341.800 295.251 C 348.360 293.083,353.334 287.889,355.465 280.983 C 356.170 278.698,356.200 274.682,356.200 183.600 L 356.200 88.600 355.267 86.015 C 352.739 79.011,347.714 74.258,340.567 72.115 C 337.370 71.156,64.870 70.847,60.527 71.797 M322.988 101.594 C 324.243 102.202,325.126 103.013,325.819 104.196 L 326.826 105.915 326.879 182.897 L 326.931 259.878 326.024 261.750 C 324.859 264.157,323.064 265.504,320.354 266.005 C 318.935 266.268,276.827 266.370,197.966 266.303 L 77.742 266.200 76.039 265.074 C 72.500 262.731,72.818 270.727,72.811 184.000 C 72.804 101.976,72.716 105.347,74.929 102.946 C 77.289 100.385,68.136 100.553,200.158 100.636 L 321.166 100.712 322.988 101.594 M248.549 139.589 C 246.519 140.603,242.003 144.923,217.785 169.014 C 202.173 184.544,188.860 197.599,188.200 198.024 C 185.311 199.885,183.977 199.108,174.863 190.262 C 156.905 172.829,156.027 172.137,151.324 171.725 C 142.821 170.979,135.727 180.879,139.433 188.317 C 140.696 190.851,169.973 219.630,178.800 227.015 C 182.931 230.471,187.893 231.042,191.815 228.512 C 193.632 227.339,225.273 195.889,238.020 182.585 C 240.979 179.496,247.821 172.647,253.224 167.365 C 260.864 159.896,263.288 157.280,264.124 155.601 C 268.761 146.296,257.760 134.986,248.549 139.589 " stroke="none" fill="#0b0c0c" fill-rule="evenodd" data-darkreader-inline-fill="" data-darkreader-inline-stroke="" ></path></g></svg>