<svg id="svg" version="1.1" width="400" height="400" viewBox="0 0 400 400" xmlns="http://www.w3.org/2000/svg" xmlns:xlink="http://www.w3.org/1999/xlink"><g id="svgg"><path id="path0" d="M215.610 33.041 C 203.339 36.339,199.065 51.903,207.981 60.819 C 218.992 71.830,237.943 61.927,235.307 46.541 C 233.621 36.696,224.717 30.594,215.610 33.041 M177.487 70.837 C 170.462 72.491,165.048 80.443,166.314 87.249 C 169.722 105.573,194.841 103.249,194.947 84.600 C 195.001 75.133,186.776 68.649,177.487 70.837 M156.200 116.007 C 144.498 116.240,143.419 116.478,140.266 119.520 C 133.552 126.000,137.032 135.745,146.795 137.799 C 149.724 138.415,150.888 139.070,151.678 140.546 C 151.941 141.038,152.061 151.736,152.023 171.252 C 151.955 205.397,152.348 201.707,147.919 209.799 C 142.841 219.073,139.974 224.416,134.548 234.714 C 131.617 240.277,125.548 251.527,121.063 259.714 C 112.265 275.771,98.599 301.311,91.324 315.291 C 88.358 320.991,86.450 325.190,85.779 327.491 C 81.287 342.911,89.310 357.754,104.894 362.856 L 109.000 364.200 199.200 364.200 L 289.400 364.200 292.985 363.077 C 312.634 356.923,319.776 338.407,309.834 319.400 C 302.128 304.668,295.474 292.279,291.921 286.049 C 289.710 282.172,285.016 273.420,281.489 266.600 C 275.286 254.603,268.379 241.735,262.810 231.800 C 261.330 229.160,258.174 223.310,255.796 218.800 C 253.419 214.290,250.688 209.204,249.728 207.499 C 246.666 202.058,246.766 203.367,246.890 170.280 C 247.017 136.255,246.657 139.050,251.036 138.072 C 256.607 136.826,258.893 135.325,260.633 131.768 C 263.757 125.384,259.914 117.348,253.200 116.226 C 251.380 115.921,169.754 115.737,156.200 116.007 M224.553 138.382 C 227.114 139.356,226.996 137.733,227.033 172.382 L 227.067 203.800 228.181 207.200 C 229.493 211.205,230.436 213.130,237.192 225.600 C 242.118 234.691,247.941 245.622,251.755 252.938 C 253.830 256.919,254.062 258.491,252.700 259.348 C 250.752 260.575,149.176 261.075,146.900 259.868 C 145.273 259.006,145.156 257.350,146.540 254.760 C 147.057 253.792,151.204 246.100,155.755 237.666 C 165.674 219.283,169.635 211.446,171.103 207.298 L 172.200 204.200 172.400 172.161 C 172.615 137.772,172.521 139.218,174.586 138.381 C 175.749 137.909,223.313 137.911,224.553 138.382 " stroke="none" fill="#0b0d0b" fill-rule="evenodd" data-darkreader-inline-fill="" data-darkreader-inline-stroke="" ></path></g></svg>