<svg id="svg" version="1.1" width="400" height="400" viewBox="0 0 400 400" xmlns="http://www.w3.org/2000/svg" xmlns:xlink="http://www.w3.org/1999/xlink"><g id="svgg"><path id="path0" d="M67.800 68.658 C 57.037 70.915,49.566 77.559,46.724 87.400 L 45.800 90.600 45.802 186.200 L 45.804 281.800 46.892 285.000 C 49.217 291.841,53.836 297.267,59.933 300.318 C 65.975 303.342,62.658 303.185,122.735 303.298 L 176.469 303.400 177.394 304.475 C 179.351 306.751,179.240 317.222,177.236 319.225 L 176.160 320.302 149.980 320.490 C 124.242 320.675,123.762 320.693,121.541 321.552 C 110.217 325.936,110.181 342.673,121.486 347.058 C 124.143 348.088,270.693 348.437,274.188 347.421 C 286.086 343.962,287.134 327.164,275.800 321.585 L 273.800 320.600 248.400 320.521 C 234.430 320.477,222.317 320.432,221.482 320.421 C 218.432 320.379,218.000 319.390,218.000 312.444 C 218.000 309.149,218.171 306.001,218.381 305.450 C 219.195 303.309,216.489 303.415,275.600 303.200 L 330.600 303.000 333.400 302.065 C 341.776 299.267,347.377 293.615,350.310 285.000 L 351.400 281.800 351.504 186.854 C 351.607 92.784,351.601 91.877,350.800 88.504 C 348.716 79.729,342.789 73.193,333.866 69.831 L 330.600 68.600 199.600 68.545 C 127.550 68.515,68.240 68.565,67.800 68.658 M321.841 96.759 C 323.806 98.067,323.711 93.334,323.643 185.766 C 323.573 280.412,323.736 273.912,321.411 274.796 C 320.729 275.055,87.993 275.462,76.669 275.224 C 75.975 275.209,75.087 274.748,74.369 274.031 L 73.200 272.862 73.200 186.037 L 73.200 99.213 74.345 97.931 C 75.228 96.943,75.939 96.588,77.445 96.384 C 81.783 95.796,320.945 96.163,321.841 96.759 M166.800 133.030 C 162.989 134.800,161.411 136.935,157.012 146.275 C 154.855 150.854,151.513 157.930,149.585 162.000 C 147.657 166.070,145.593 170.570,144.999 172.000 C 140.117 183.757,141.836 182.974,120.600 183.112 C 101.884 183.235,100.660 183.363,97.932 185.488 C 92.579 189.659,91.781 196.512,96.079 201.395 C 99.697 205.506,101.047 205.681,127.800 205.523 L 148.600 205.400 150.879 204.332 C 155.705 202.070,156.540 200.756,165.063 182.021 C 171.079 168.795,170.368 168.192,180.593 195.200 C 181.968 198.830,184.560 205.490,186.355 210.000 C 190.070 219.340,191.635 223.387,194.161 230.200 C 202.181 251.829,203.317 253.394,211.000 253.398 C 218.706 253.402,220.121 251.473,236.595 218.510 C 240.044 211.608,241.987 208.175,242.995 207.200 L 244.443 205.800 268.722 205.570 C 295.698 205.315,295.042 205.381,298.318 202.577 C 304.137 197.597,302.834 188.022,295.827 184.271 C 293.592 183.075,238.162 182.670,234.600 183.825 C 230.492 185.156,228.057 187.803,224.198 195.134 C 219.850 203.394,215.444 211.217,214.675 212.042 C 212.619 214.249,210.417 211.245,206.578 201.000 C 205.753 198.800,204.474 195.380,203.734 193.400 C 196.573 174.229,182.349 138.812,181.015 136.830 C 177.968 132.304,171.871 130.674,166.800 133.030 " stroke="none" fill="#141414" fill-rule="evenodd" data-darkreader-inline-fill="" data-darkreader-inline-stroke="" ></path></g></svg>