<svg id="svg" version="1.1" width="400" height="400" viewBox="0 0 400 400" xmlns="http://www.w3.org/2000/svg" xmlns:xlink="http://www.w3.org/1999/xlink"><g id="svgg"><path id="path0" d="M193.000 71.230 C 159.181 73.414,126.883 100.739,118.421 134.325 C 109.144 171.151,122.044 205.270,169.367 269.076 C 189.451 296.155,191.903 298.674,198.600 299.105 C 206.108 299.588,209.005 296.957,226.249 274.000 C 229.802 269.270,233.953 263.759,235.475 261.753 C 244.123 250.353,263.767 219.066,269.978 206.800 C 280.357 186.303,283.410 174.691,283.387 155.800 C 283.325 105.585,243.148 67.993,193.000 71.230 M209.000 122.396 C 236.938 131.333,243.039 167.232,219.398 183.576 C 193.235 201.662,158.354 177.542,166.551 147.032 C 171.502 128.603,191.721 116.869,209.000 122.396 M135.600 271.373 C 99.375 279.466,75.499 301.125,81.354 320.583 C 87.125 339.766,120.266 357.504,157.600 361.392 C 159.030 361.541,162.450 361.997,165.200 362.405 C 181.238 364.786,221.479 364.687,236.000 362.231 C 237.870 361.914,240.390 361.541,241.600 361.400 C 303.263 354.244,336.450 320.139,308.049 293.112 C 294.821 280.524,262.173 267.543,255.251 272.120 C 248.649 276.485,250.090 283.901,257.994 286.242 C 293.505 296.757,306.007 309.763,293.610 323.293 C 273.713 345.007,201.353 354.015,145.400 341.743 C 110.835 334.162,93.459 318.829,103.726 304.971 C 108.066 299.113,122.018 292.029,138.768 287.179 C 146.372 284.978,148.860 281.416,146.440 276.200 C 144.418 271.843,140.770 270.218,135.600 271.373 M147.688 300.031 C 135.405 303.331,129.410 309.717,132.558 316.150 C 141.253 333.922,226.015 338.399,258.200 322.787 C 272.273 315.960,270.352 306.413,253.815 300.996 C 246.597 298.631,244.264 299.059,240.845 303.373 C 232.014 314.518,203.279 318.785,176.031 312.997 C 166.023 310.871,162.215 308.641,157.131 301.931 C 155.035 299.165,152.677 298.691,147.688 300.031 " stroke="none" fill="#070707" fill-rule="evenodd" data-darkreader-inline-fill="" data-darkreader-inline-stroke="" ></path></g></svg>