<svg id="svg" version="1.1" width="400" height="400" viewBox="0 0 400 400" xmlns="http://www.w3.org/2000/svg" xmlns:xlink="http://www.w3.org/1999/xlink"><g id="svgg"><path id="path0" d="M107.200 39.389 C 68.126 45.986,52.674 91.957,79.939 120.494 C 106.293 148.079,151.081 135.457,160.466 97.800 C 168.537 65.420,139.782 33.887,107.200 39.389 M119.074 63.180 C 121.688 64.773,121.707 64.995,121.266 88.624 C 120.829 112.059,120.912 111.692,116.000 111.692 C 111.014 111.692,110.833 110.943,110.684 89.711 C 110.584 75.315,110.783 75.915,106.073 75.843 C 103.013 75.796,102.061 75.279,101.198 73.195 C 99.074 68.068,113.675 59.888,119.074 63.180 M207.800 77.187 C 200.680 77.424,199.447 77.780,196.892 80.334 C 192.184 85.042,193.385 92.525,199.362 95.724 L 201.000 96.600 261.400 96.600 L 321.800 96.600 324.043 95.548 C 331.641 91.986,331.317 81.459,323.503 77.959 L 321.400 77.017 267.800 76.996 C 238.320 76.984,211.320 77.070,207.800 77.187 M107.000 154.457 C 70.401 159.101,53.281 205.363,77.736 233.533 C 106.586 266.764,159.675 248.040,161.473 204.000 C 162.712 173.642,137.379 150.601,107.000 154.457 M120.872 178.276 C 133.204 184.070,132.947 196.929,120.251 209.369 C 112.676 216.790,112.777 217.651,121.263 218.019 C 128.444 218.330,130.000 219.225,130.000 223.045 C 130.000 226.980,129.163 227.200,114.173 227.200 C 100.844 227.200,99.806 227.048,98.855 224.962 C 97.448 221.872,98.643 219.062,103.751 213.445 C 118.191 197.566,120.157 194.628,118.771 190.988 C 117.108 186.619,112.123 185.632,107.680 188.793 C 101.316 193.320,95.775 188.004,100.849 182.239 C 105.533 176.918,114.292 175.185,120.872 178.276 M202.131 192.418 C 193.046 194.214,191.249 206.138,199.400 210.537 L 201.000 211.400 260.200 211.506 C 301.588 211.581,320.031 211.482,321.496 211.179 C 331.591 209.089,332.342 195.512,322.525 192.557 C 320.417 191.923,205.308 191.790,202.131 192.418 M103.621 270.450 C 82.459 274.891,66.400 295.181,66.400 317.478 C 66.400 359.189,116.853 380.789,146.696 351.855 C 181.426 318.183,150.916 260.525,103.621 270.450 M120.870 293.674 C 128.852 297.382,131.245 305.167,126.625 312.400 C 124.798 315.261,124.799 316.559,126.628 318.955 C 133.417 327.846,129.399 339.014,118.398 341.832 C 106.828 344.796,93.579 337.067,100.226 331.231 C 102.225 329.476,104.001 329.562,107.848 331.600 C 112.158 333.883,115.494 333.679,118.208 330.966 C 121.832 327.341,118.958 322.458,112.445 321.177 C 105.580 319.826,106.047 312.089,113.000 311.993 C 117.103 311.937,119.656 307.598,117.492 304.359 C 115.420 301.257,112.384 300.953,107.794 303.389 C 104.687 305.037,103.420 305.138,101.565 303.888 C 92.894 298.045,110.373 288.797,120.870 293.674 M208.000 307.978 C 200.167 308.226,199.004 308.551,196.752 311.115 C 192.286 316.203,194.321 324.217,200.648 326.452 C 203.395 327.422,320.754 327.249,323.289 326.271 C 331.632 323.052,331.181 310.732,322.627 308.187 C 320.611 307.587,225.785 307.414,208.000 307.978 " stroke="none" fill="#0e0f0f" fill-rule="evenodd" data-darkreader-inline-fill="" data-darkreader-inline-stroke="" ></path></g></svg>