<svg id="svg" version="1.1" width="400" height="400" viewBox="0 0 400 400" xmlns="http://www.w3.org/2000/svg" xmlns:xlink="http://www.w3.org/1999/xlink"><g id="svgg"><path id="path0" d="M187.800 60.828 C 134.297 66.629,89.305 102.796,71.421 154.379 C 65.831 170.502,62.884 198.288,65.119 213.800 C 71.525 258.267,91.413 290.425,127.800 315.155 C 171.434 344.809,233.850 344.747,278.800 315.004 C 366.820 256.762,361.273 127.242,268.576 76.281 C 244.713 63.163,216.334 57.734,187.800 60.828 M219.298 82.581 C 288.667 93.066,332.901 158.527,316.752 226.800 C 301.138 292.808,230.252 331.812,165.800 309.859 C 89.209 283.771,61.373 191.030,110.790 126.580 C 128.850 103.025,157.089 86.903,187.400 82.840 C 190.700 82.398,193.940 81.954,194.600 81.854 C 197.390 81.431,215.152 81.954,219.298 82.581 M194.200 148.031 C 160.052 153.983,141.157 190.752,156.499 221.400 C 175.416 259.190,230.141 259.782,248.988 222.400 C 268.292 184.115,236.303 140.694,194.200 148.031 " stroke="none" fill="#0c0d0d" fill-rule="evenodd" data-darkreader-inline-fill="" data-darkreader-inline-stroke="" ></path></g></svg>